<svg xmlns="http://www.w3.org/2000/svg" version="1.1" xmlns:xlink="http://www.w3.org/1999/xlink" xmlns:svgjs="http://svgjs.dev/svgjs" width="1000" height="358" viewBox="0 0 1000 358"><g transform="matrix(1,0,0,1,-0.6060606060606233,0.595371267391755)"><svg viewBox="0 0 396 142" data-background-color="#ffffff" preserveAspectRatio="xMidYMid meet" height="358" width="1000" xmlns="http://www.w3.org/2000/svg" xmlns:xlink="http://www.w3.org/1999/xlink"><defs></defs><g id="tight-bounds" transform="matrix(1,0,0,1,0.2400000000000091,-0.23615284907717182)"><svg viewBox="0 0 395.52 142.47230569815434" height="142.47230569815434" width="395.52"><g><svg viewBox="0 0 658.507183819055 237.20427992895205" height="142.47230569815434" width="395.52"><g transform="matrix(1,0,0,1,262.98718381905496,0)"><svg viewBox="0 0 395.52 237.20427992895205" height="237.20427992895205" width="395.52"><g><svg viewBox="0 0 395.52 237.20427992895205" height="237.20427992895205" width="395.52"><g><svg viewBox="0 0 395.52 237.20427992895205" height="237.20427992895205" width="395.52"><g transform="matrix(1,0,0,1,0,0)"><svg width="395.52" viewBox="2.759999999999997 -36.5 164.94000000000008 86.96000000000001" height="237.20427992895205" data-palette-color="#8abe53"><svg></svg><svg></svg><g class="undefined-text-0" data-fill-palette-color="primary" id="text-0"><path d="M20.61-36.5v0c5.433 0 9.613 1.717 12.54 5.15 2.933 3.433 4.4 8.187 4.4 14.26v0c0 3.547-0.83 6.733-2.49 9.56-1.66 2.82-3.867 4.997-6.62 6.53v0c1.973 2.313 3.773 4.177 5.4 5.59v0c0.767 0.653 1.66 1.157 2.68 1.51 1.027 0.36 1.853 0.573 2.48 0.64 0.627 0.067 1.46 0.123 2.5 0.17v0l0.1 0.39c-2.36 0.7-4.36 1.587-6 2.66v0l-0.39-0.12c-1.647-1.073-3.257-2.387-4.83-3.94-1.567-1.56-3.28-3.43-5.14-5.61v0c-1.513 0.473-3.107 0.71-4.78 0.71v0c-2.407 0-4.643-0.427-6.71-1.28-2.073-0.853-3.87-2.07-5.39-3.65-1.52-1.58-2.71-3.57-3.57-5.97-0.867-2.4-1.3-5.067-1.3-8v0c0-2.587 0.46-5.033 1.38-7.34 0.92-2.313 2.15-4.287 3.69-5.92 1.533-1.64 3.35-2.94 5.45-3.9 2.1-0.96 4.3-1.44 6.6-1.44zM7.59-18.14v0c0 2.393 0.257 4.587 0.77 6.58 0.513 1.993 1.2 3.673 2.06 5.04 0.867 1.367 1.88 2.523 3.04 3.47 1.167 0.94 2.393 1.627 3.68 2.06 1.287 0.433 2.62 0.65 4 0.65v0c2.007 0 3.803-0.44 5.39-1.32 1.587-0.88 2.877-2.08 3.87-3.6 0.987-1.52 1.743-3.267 2.27-5.24 0.52-1.967 0.78-4.083 0.78-6.35v0c0-2.94-0.37-5.59-1.11-7.95-0.74-2.36-1.737-4.27-2.99-5.73-1.253-1.453-2.673-2.563-4.26-3.33-1.587-0.767-3.27-1.15-5.05-1.15v0c-2 0-3.8 0.46-5.4 1.38-1.607 0.92-2.913 2.16-3.92 3.72-1.013 1.567-1.787 3.353-2.32 5.36-0.54 2.013-0.81 4.15-0.81 6.41zM66.38-22.19v15.38c0 1.087 0.053 1.993 0.16 2.72 0.107 0.727 0.293 1.31 0.56 1.75 0.267 0.44 0.637 0.753 1.11 0.94 0.473 0.187 0.97 0.28 1.49 0.28 0.52 0 0.847-0.01 0.98-0.03v0l0.12 0.44c-2.687 0.8-5.16 1.2-7.42 1.2v0c-0.327-0.88-0.49-1.807-0.49-2.78v0-1.15c-0.86 0.767-1.66 1.427-2.4 1.98-0.74 0.553-1.47 1.01-2.19 1.37-0.713 0.367-1.447 0.64-2.2 0.82-0.747 0.18-1.55 0.27-2.41 0.27v0c-0.98 0-1.953-0.113-2.92-0.34-0.967-0.227-1.843-0.633-2.63-1.22-0.78-0.587-1.41-1.383-1.89-2.39-0.48-1.013-0.72-2.3-0.72-3.86v0-15.09c0-0.653-0.273-1.15-0.82-1.49-0.54-0.34-1.347-0.657-2.42-0.95v0l0.19-0.61c0.947 0.193 2.167 0.29 3.66 0.29v0c0.927 0 2.01-0.13 3.25-0.39v0l0.15 0.25c-0.327 0.5-0.49 1.37-0.49 2.61v0 14.5c0 1.353 0.153 2.463 0.46 3.33 0.313 0.873 0.73 1.563 1.25 2.07 0.52 0.5 1.13 0.843 1.83 1.03 0.7 0.187 1.44 0.28 2.22 0.28v0c0.733 0 1.413-0.077 2.04-0.23 0.627-0.153 1.257-0.397 1.89-0.73 0.633-0.333 1.283-0.763 1.95-1.29 0.667-0.533 1.4-1.173 2.2-1.92v0-16.14c0-0.507-0.043-0.917-0.13-1.23-0.093-0.32-0.267-0.59-0.52-0.81-0.247-0.22-0.607-0.41-1.08-0.57-0.473-0.167-1.093-0.347-1.86-0.54v0l0.2-0.61c0.927 0.133 1.723 0.23 2.39 0.29 0.667 0.067 1.203 0.1 1.61 0.1v0c0.927 0 2.01-0.13 3.25-0.39v0l0.14 0.25c-0.34 0.487-0.51 1.357-0.51 2.61zM75.54-11.89v0c0-1.727 0.283-3.4 0.85-5.02 0.573-1.62 1.387-3.06 2.44-4.32 1.06-1.26 2.343-2.27 3.85-3.03 1.507-0.753 3.193-1.13 5.06-1.13v0c1.173 0 2.28 0.2 3.32 0.6 1.047 0.4 1.957 1.017 2.73 1.85 0.773 0.84 1.383 1.917 1.83 3.23 0.447 1.307 0.67 2.863 0.67 4.67v0l-0.95 0.88h-15.95c-0.027 0.273-0.04 0.543-0.04 0.81 0 0.26 0 0.52 0 0.78v0c0 1.773 0.207 3.383 0.62 4.83 0.413 1.447 0.973 2.687 1.68 3.72 0.707 1.033 1.543 1.837 2.51 2.41 0.96 0.567 1.977 0.85 3.05 0.85v0c0.68 0 1.373-0.053 2.08-0.16 0.713-0.1 1.407-0.267 2.08-0.5 0.673-0.227 1.327-0.517 1.96-0.87 0.64-0.36 1.227-0.793 1.76-1.3v0l1 1.05c-1.28 1.273-2.68 2.18-4.2 2.72-1.513 0.547-3.26 0.82-5.24 0.82v0c-1.567 0-3.03-0.3-4.39-0.9-1.36-0.607-2.533-1.47-3.52-2.59-0.993-1.12-1.777-2.477-2.35-4.07-0.567-1.587-0.85-3.363-0.85-5.33zM87.21-23.71v0c-2.527 0-4.373 0.657-5.54 1.97-1.173 1.307-1.883 3.19-2.13 5.65v0h13.6c-0.133-2.667-0.73-4.603-1.79-5.81-1.067-1.207-2.447-1.81-4.14-1.81zM136.79-2.44v-3.1-11.21c0-1.413-0.15-2.56-0.45-3.44-0.3-0.88-0.69-1.563-1.17-2.05-0.48-0.487-1.017-0.817-1.61-0.99-0.593-0.173-1.183-0.26-1.77-0.26v0c-1.14 0-2.317 0.23-3.53 0.69-1.213 0.453-2.497 1.17-3.85 2.15v0c0.26 0.873 0.39 1.873 0.39 3v0 14.89c0 0.407 0.097 0.74 0.29 1 0.187 0.26 0.43 0.48 0.73 0.66 0.3 0.18 0.647 0.33 1.04 0.45 0.387 0.127 0.783 0.247 1.19 0.36v0l-0.19 0.58c-0.96-0.193-2.183-0.29-3.67-0.29v0c-0.927 0-2.007 0.13-3.24 0.39v0l-0.15-0.24c0.34-0.46 0.51-1.323 0.51-2.59v0-14.31c0-1.4-0.16-2.54-0.48-3.42-0.327-0.873-0.75-1.56-1.27-2.06-0.527-0.493-1.113-0.83-1.76-1.01-0.653-0.18-1.297-0.27-1.93-0.27v0c-0.733 0-1.417 0.077-2.05 0.23-0.633 0.153-1.257 0.377-1.87 0.67-0.607 0.293-1.237 0.663-1.89 1.11-0.653 0.447-1.353 0.963-2.1 1.55v0 16.61c0 0.52 0.04 0.937 0.12 1.25 0.08 0.32 0.25 0.587 0.51 0.8 0.26 0.207 0.627 0.393 1.1 0.56 0.473 0.16 1.093 0.337 1.86 0.53v0l-0.2 0.59c-0.94-0.127-1.74-0.223-2.4-0.29-0.66-0.067-1.193-0.1-1.6-0.1v0c-0.927 0-2.01 0.13-3.25 0.39v0l-0.14-0.24c0.32-0.473 0.48-1.337 0.48-2.59v0-15.65c0-1.093-0.053-2.007-0.16-2.74-0.1-0.727-0.287-1.31-0.56-1.75-0.267-0.44-0.637-0.75-1.11-0.93-0.473-0.18-1.073-0.27-1.8-0.27v0c-0.1 0-0.207 0-0.32 0-0.113 0-0.227 0.01-0.34 0.03v0l-0.1-0.44c2.653-0.8 5.12-1.2 7.4-1.2v0c0.34 0.86 0.51 1.787 0.51 2.78v0 1c0.88-0.667 1.68-1.24 2.4-1.72 0.727-0.48 1.437-0.873 2.13-1.18 0.693-0.313 1.397-0.543 2.11-0.69 0.713-0.147 1.51-0.22 2.39-0.22v0c0.633 0 1.28 0.053 1.94 0.16 0.66 0.107 1.297 0.297 1.91 0.57 0.607 0.267 1.17 0.62 1.69 1.06 0.527 0.44 0.967 1 1.32 1.68v0c0.8-0.587 1.567-1.1 2.3-1.54 0.733-0.44 1.457-0.803 2.17-1.09 0.713-0.293 1.437-0.51 2.17-0.65 0.733-0.14 1.507-0.21 2.32-0.21v0c0.9 0 1.793 0.117 2.68 0.35 0.887 0.24 1.687 0.653 2.4 1.24 0.713 0.587 1.297 1.38 1.75 2.38 0.447 1 0.67 2.273 0.67 3.82v0 14.89c0 0.407 0.093 0.74 0.28 1 0.187 0.26 0.43 0.48 0.73 0.66 0.3 0.18 0.647 0.33 1.04 0.45 0.387 0.127 0.783 0.247 1.19 0.36v0l-0.19 0.58c-0.96-0.193-2.18-0.29-3.66-0.29v0c-0.927 0-2.01 0.13-3.25 0.39v0l-0.15-0.24c0.327-0.473 0.49-1.337 0.49-2.59z" data-fill-palette-color="primary" fill="#8abe53" opacity="1"></path><path d="M19.31 43.77v0c0 1.173-0.237 2.183-0.71 3.03-0.467 0.847-1.097 1.543-1.89 2.09-0.787 0.54-1.707 0.937-2.76 1.19-1.047 0.253-2.15 0.38-3.31 0.38v0c-2.793 0-5.42-0.587-7.88-1.76v0c0.307-1.073 0.617-2.07 0.93-2.99 0.307-0.92 0.623-1.77 0.95-2.55v0l0.71 0.25c-0.147 0.713-0.22 1.4-0.22 2.06 0 0.66 0.023 1.257 0.07 1.79v0c0.507 0.26 0.98 0.483 1.42 0.67 0.44 0.187 0.877 0.343 1.31 0.47 0.44 0.12 0.913 0.21 1.42 0.27 0.507 0.053 1.093 0.08 1.76 0.08v0c0.993 0 1.813-0.063 2.46-0.19 0.653-0.133 1.163-0.357 1.53-0.67 0.367-0.32 0.623-0.743 0.77-1.27 0.147-0.533 0.22-1.19 0.22-1.97v0c0-0.6-0.103-1.167-0.31-1.7-0.2-0.527-0.55-1.05-1.05-1.57-0.493-0.52-1.15-1.06-1.97-1.62-0.827-0.567-1.85-1.183-3.07-1.85v0c-1.967-1.173-3.457-2.34-4.47-3.5-1.007-1.167-1.51-2.417-1.51-3.75v0c0-1.06 0.22-2 0.66-2.82 0.44-0.82 1.037-1.51 1.79-2.07 0.76-0.567 1.643-0.99 2.65-1.27 1.013-0.287 2.08-0.43 3.2-0.43v0c0.573 0 1.173 0.04 1.8 0.12 0.627 0.08 1.233 0.2 1.82 0.36 0.58 0.153 1.127 0.34 1.64 0.56 0.513 0.22 0.957 0.467 1.33 0.74v0c-0.52 2.133-1.153 4.007-1.9 5.62v0l-0.71-0.27c0.033-0.473 0.057-1.057 0.07-1.75 0.02-0.687 0.03-1.503 0.03-2.45v0c-1.06-0.833-2.527-1.25-4.4-1.25v0c-0.927 0-1.71 0.057-2.35 0.17-0.647 0.12-1.163 0.317-1.55 0.59-0.393 0.28-0.673 0.66-0.84 1.14-0.173 0.48-0.26 1.083-0.26 1.81v0c0 0.54 0.073 1.043 0.22 1.51 0.147 0.46 0.407 0.913 0.78 1.36 0.373 0.447 0.883 0.903 1.53 1.37 0.64 0.467 1.463 0.967 2.47 1.5v0c1.58 0.867 2.863 1.623 3.85 2.27 0.987 0.653 1.76 1.293 2.32 1.92 0.56 0.627 0.943 1.28 1.15 1.96 0.2 0.687 0.3 1.493 0.3 2.42zM36.69 24.07v0c3.747 0 6.687 1.147 8.82 3.44 2.133 2.293 3.2 5.493 3.2 9.6v0c0 2.373-0.547 4.587-1.64 6.64-1.093 2.047-2.573 3.677-4.44 4.89-1.873 1.213-3.9 1.82-6.08 1.82v0c-3.76 0-6.703-1.133-8.83-3.4-2.12-2.273-3.18-5.493-3.18-9.66v0c0-2.473 0.543-4.733 1.63-6.78 1.093-2.04 2.57-3.643 4.43-4.81 1.867-1.16 3.897-1.74 6.09-1.74zM36.21 25.75v0c-1.287 0-2.403 0.19-3.35 0.57-0.94 0.373-1.697 0.877-2.27 1.51-0.567 0.633-1.023 1.44-1.37 2.42-0.34 0.973-0.57 1.973-0.69 3-0.127 1.027-0.19 2.213-0.19 3.56v0c0 2.153 0.257 4.03 0.77 5.63 0.513 1.607 1.203 2.853 2.07 3.74 0.86 0.887 1.78 1.537 2.76 1.95 0.973 0.413 2.007 0.62 3.1 0.62v0c1.267 0 2.377-0.2 3.33-0.6 0.953-0.393 1.713-0.913 2.28-1.56 0.573-0.64 1.03-1.453 1.37-2.44 0.34-0.987 0.57-1.983 0.69-2.99 0.127-1.007 0.19-2.153 0.19-3.44v0c0-1.807-0.173-3.42-0.52-4.84-0.34-1.413-0.79-2.56-1.35-3.44-0.56-0.88-1.227-1.603-2-2.17-0.773-0.573-1.55-0.97-2.33-1.19-0.787-0.22-1.617-0.33-2.49-0.33zM89.18 47.02v-3.1-11.21c0-1.413-0.15-2.56-0.45-3.44-0.3-0.88-0.69-1.563-1.17-2.05-0.48-0.487-1.017-0.817-1.61-0.99-0.593-0.173-1.183-0.26-1.77-0.26v0c-1.14 0-2.317 0.23-3.53 0.69-1.213 0.453-2.493 1.17-3.84 2.15v0c0.26 0.873 0.39 1.873 0.39 3v0 14.89c0 0.407 0.093 0.74 0.28 1 0.187 0.26 0.43 0.48 0.73 0.66 0.3 0.18 0.647 0.33 1.04 0.45 0.387 0.127 0.783 0.247 1.19 0.36v0l-0.19 0.58c-0.96-0.193-2.18-0.29-3.66-0.29v0c-0.927 0-2.01 0.13-3.25 0.39v0l-0.15-0.24c0.347-0.46 0.52-1.323 0.52-2.59v0-14.31c0-1.4-0.163-2.54-0.49-3.42-0.327-0.873-0.75-1.56-1.27-2.06-0.52-0.493-1.107-0.83-1.76-1.01-0.653-0.18-1.297-0.27-1.93-0.27v0c-0.733 0-1.417 0.077-2.05 0.23-0.633 0.153-1.257 0.377-1.87 0.67-0.607 0.293-1.237 0.663-1.89 1.11-0.653 0.447-1.353 0.963-2.1 1.55v0 16.61c0 0.52 0.04 0.937 0.12 1.25 0.087 0.32 0.26 0.587 0.52 0.8 0.26 0.207 0.623 0.393 1.09 0.56 0.473 0.16 1.093 0.337 1.86 0.53v0l-0.19 0.59c-0.947-0.127-1.75-0.223-2.41-0.29-0.66-0.067-1.193-0.1-1.6-0.1v0c-0.927 0-2.01 0.13-3.25 0.39v0l-0.14-0.24c0.327-0.473 0.49-1.337 0.49-2.59v0-15.65c0-1.093-0.053-2.007-0.16-2.74-0.107-0.727-0.293-1.31-0.56-1.75-0.273-0.44-0.647-0.75-1.12-0.93-0.467-0.18-1.067-0.27-1.8-0.27v0c-0.1 0-0.207 0-0.32 0-0.113 0-0.227 0.01-0.34 0.03v0l-0.1-0.44c2.653-0.8 5.12-1.2 7.4-1.2v0c0.34 0.86 0.51 1.787 0.51 2.78v0 1c0.88-0.667 1.683-1.24 2.41-1.72 0.72-0.48 1.427-0.873 2.12-1.18 0.693-0.313 1.397-0.543 2.11-0.69 0.72-0.147 1.517-0.22 2.39-0.22v0c0.64 0 1.29 0.053 1.95 0.16 0.653 0.107 1.287 0.297 1.9 0.57 0.613 0.267 1.18 0.62 1.7 1.06 0.52 0.44 0.96 1 1.32 1.68v0c0.793-0.587 1.557-1.1 2.29-1.54 0.733-0.44 1.457-0.803 2.17-1.09 0.72-0.293 1.447-0.51 2.18-0.65 0.727-0.14 1.5-0.21 2.32-0.21v0c0.893 0 1.783 0.117 2.67 0.35 0.887 0.24 1.687 0.653 2.4 1.24 0.72 0.587 1.303 1.38 1.75 2.38 0.447 1 0.67 2.273 0.67 3.82v0 14.89c0 0.407 0.093 0.74 0.28 1 0.187 0.26 0.43 0.48 0.73 0.66 0.307 0.18 0.653 0.33 1.04 0.45 0.393 0.127 0.793 0.247 1.2 0.36v0l-0.2 0.58c-0.96-0.193-2.18-0.29-3.66-0.29v0c-0.927 0-2.01 0.13-3.25 0.39v0l-0.14-0.24c0.32-0.473 0.48-1.337 0.48-2.59zM112.84 24.07v0c3.747 0 6.687 1.147 8.82 3.44 2.127 2.293 3.19 5.493 3.19 9.6v0c0 2.373-0.543 4.587-1.63 6.64-1.093 2.047-2.577 3.677-4.45 4.89-1.867 1.213-3.89 1.82-6.07 1.82v0c-3.76 0-6.703-1.133-8.83-3.4-2.127-2.273-3.19-5.493-3.19-9.66v0c0-2.473 0.547-4.733 1.64-6.78 1.093-2.04 2.57-3.643 4.43-4.81 1.867-1.16 3.897-1.74 6.09-1.74zM112.35 25.75v0c-1.287 0-2.4 0.19-3.34 0.57-0.947 0.373-1.703 0.877-2.27 1.51-0.573 0.633-1.03 1.44-1.37 2.42-0.34 0.973-0.57 1.973-0.69 3-0.127 1.027-0.19 2.213-0.19 3.56v0c0 2.153 0.257 4.03 0.77 5.63 0.513 1.607 1.2 2.853 2.06 3.74 0.867 0.887 1.787 1.537 2.76 1.95 0.98 0.413 2.013 0.62 3.1 0.62v0c1.273 0 2.387-0.2 3.34-0.6 0.947-0.393 1.707-0.913 2.28-1.56 0.567-0.64 1.023-1.453 1.37-2.44 0.34-0.987 0.57-1.983 0.69-2.99 0.12-1.007 0.18-2.153 0.18-3.44v0c0-1.807-0.17-3.42-0.51-4.84-0.34-1.413-0.79-2.56-1.35-3.44-0.567-0.88-1.233-1.603-2-2.17-0.773-0.573-1.553-0.97-2.34-1.19-0.78-0.22-1.61-0.33-2.49-0.33zM146.66 43.77v0c0 1.173-0.237 2.183-0.71 3.03-0.473 0.847-1.103 1.543-1.89 2.09-0.793 0.54-1.713 0.937-2.76 1.19-1.053 0.253-2.157 0.38-3.31 0.38v0c-2.8 0-5.43-0.587-7.89-1.76v0c0.313-1.073 0.623-2.07 0.93-2.99 0.307-0.92 0.623-1.77 0.95-2.55v0l0.71 0.25c-0.147 0.713-0.22 1.4-0.22 2.06 0 0.66 0.023 1.257 0.07 1.79v0c0.507 0.26 0.98 0.483 1.42 0.67 0.44 0.187 0.88 0.343 1.32 0.47 0.44 0.12 0.91 0.21 1.41 0.27 0.507 0.053 1.093 0.08 1.76 0.08v0c0.993 0 1.817-0.063 2.47-0.19 0.647-0.133 1.153-0.357 1.52-0.67 0.367-0.32 0.623-0.743 0.77-1.27 0.147-0.533 0.22-1.19 0.22-1.97v0c0-0.6-0.1-1.167-0.3-1.7-0.207-0.527-0.557-1.05-1.05-1.57-0.5-0.52-1.16-1.06-1.98-1.62-0.82-0.567-1.84-1.183-3.06-1.85v0c-1.973-1.173-3.463-2.34-4.47-3.5-1.013-1.167-1.52-2.417-1.52-3.75v0c0-1.06 0.22-2 0.66-2.82 0.44-0.82 1.04-1.51 1.8-2.07 0.753-0.567 1.637-0.99 2.65-1.27 1.007-0.287 2.073-0.43 3.2-0.43v0c0.567 0 1.163 0.04 1.79 0.12 0.627 0.08 1.233 0.2 1.82 0.36 0.587 0.153 1.137 0.34 1.65 0.56 0.513 0.22 0.957 0.467 1.33 0.74v0c-0.52 2.133-1.157 4.007-1.91 5.62v0l-0.71-0.27c0.033-0.473 0.06-1.057 0.08-1.75 0.013-0.687 0.02-1.503 0.02-2.45v0c-1.053-0.833-2.517-1.25-4.39-1.25v0c-0.927 0-1.713 0.057-2.36 0.17-0.64 0.12-1.157 0.317-1.55 0.59-0.387 0.28-0.667 0.66-0.84 1.14-0.173 0.48-0.26 1.083-0.26 1.81v0c0 0.54 0.073 1.043 0.22 1.51 0.147 0.46 0.407 0.913 0.78 1.36 0.38 0.447 0.89 0.903 1.53 1.37 0.64 0.467 1.467 0.967 2.48 1.5v0c1.58 0.867 2.86 1.623 3.84 2.27 0.987 0.653 1.76 1.293 2.32 1.92 0.56 0.627 0.943 1.28 1.15 1.96 0.207 0.687 0.31 1.493 0.31 2.42zM159.35 31.86v0c-0.1 0.307-0.153 0.903-0.16 1.79-0.007 0.887 0.103 1.903 0.33 3.05 0.227 1.147 0.537 1.9 0.93 2.26v0l0.1 0.44c-1.6 0.88-3.05 1.387-4.35 1.52v0c-0.113-1.827-0.103-3.55 0.03-5.17 0.127-1.62 0.33-2.68 0.61-3.18v0c0.06-0.133 0.483-0.683 1.27-1.65 0.78-0.973 1.55-1.98 2.31-3.02 0.767-1.04 1.48-2.253 2.14-3.64 0.66-1.38 0.99-2.583 0.99-3.61v0c0-3.353-1.857-5.03-5.57-5.03v0c-1.073 0-2.3 0.27-3.68 0.81-1.387 0.533-2.527 1.193-3.42 1.98v0l-0.73-0.76c1.3-1.353 2.83-2.383 4.59-3.09 1.753-0.707 3.453-1.06 5.1-1.06v0c2.327 0 4.22 0.557 5.68 1.67 1.453 1.113 2.18 2.663 2.18 4.65v0c0 0.947-0.273 1.983-0.82 3.11-0.547 1.133-1.22 2.193-2.02 3.18-0.807 0.98-1.61 1.883-2.41 2.71-0.8 0.82-1.507 1.517-2.12 2.09-0.62 0.567-0.947 0.883-0.98 0.95zM161.74 48.26v0l-0.51 0.49c-1.447 0.167-2.757 0.607-3.93 1.32v0c-0.667-1.56-1.157-3-1.47-4.32v0c1.713-0.847 3.367-1.36 4.96-1.54v0c0 1.287 0.317 2.637 0.95 4.05z" data-fill-palette-color="secondary" fill="#9fa6b2" opacity="1"></path></g></svg></g></svg></g></svg></g></svg></g><g transform="matrix(1,0,0,1,0,13.409376862905901)"><svg viewBox="0 0 210.38552620314024 210.38552620314024" height="210.38552620314024" width="210.38552620314024"><g><svg></svg></g><g id="icon-0"><svg viewBox="0 0 210.38552620314024 210.38552620314024" height="210.38552620314024" width="210.38552620314024"><g><path d="M0 105.193c0-58.096 47.096-105.193 105.193-105.193 58.096 0 105.193 47.096 105.193 105.193 0 58.096-47.096 105.193-105.193 105.193-58.096 0-105.193-47.096-105.193-105.193zM105.193 200.339c52.548 0 95.146-42.598 95.146-95.146 0-52.548-42.598-95.146-95.146-95.146-52.548 0-95.146 42.598-95.146 95.146 0 52.548 42.598 95.146 95.146 95.146z" data-fill-palette-color="accent" fill="#398378" stroke="transparent"></path></g><g transform="matrix(1,0,0,1,59.87018385358456,65.26325964510687)"><svg viewBox="0 0 90.64515849597113 79.85900691292652" height="79.85900691292652" width="90.64515849597113"><g><svg xmlns="http://www.w3.org/2000/svg" xmlns:xlink="http://www.w3.org/1999/xlink" version="1.1" x="0" y="0" viewBox="6.3 11.5 87.4 77" style="enable-background:new 0 0 100 100;" xml:space="preserve" height="79.85900691292652" width="90.64515849597113" class="icon-li-0" data-fill-palette-color="accent" id="li-0"><path d="M72.3 12.3L72.3 12.3 72.3 12.3l-0.4-0.8H28.2L6.3 50l21.8 38.5h43.7L93.7 50 72.3 12.3zM33.3 25.3L9.9 47.7l18.6-32.8L33.3 25.3zM70.7 14.8l6.4 35.7L36.9 25.8 70.7 14.8zM35.5 27.3l41 25.2-41 23.3V27.3zM77 54.5l-7.2 30.8-32.6-8.1L77 54.5zM33.5 75L9.9 50.5l23.6-22.7V75zM33.2 77.6l-4.6 7.7L11.5 55.1 33.2 77.6zM35 78.6l31.4 7.9H30.2L35 78.6zM79.3 53.3l11.6-2.5L72.1 84 79.3 53.3zM90.7 48.9l-11.4 2.5-5.9-33.1L90.7 48.9zM35 24.3l-5-10.8h38.2L35 24.3z" fill="#398378" data-fill-palette-color="accent"></path></svg><g></g></g></svg></g></svg></g></svg></g></svg></g></svg><rect width="395.52" height="142.47230569815434" fill="none" stroke="none" visibility="hidden"></rect></g></svg></g></svg>